<svg xmlns="http://www.w3.org/2000/svg" viewBox="0 0 220 48" role="img" aria-label="CloudHosting AI Panel">
  <!-- Placeholder CloudHosting logo: brand-blue cloud mark + wordmark. Replace with the real asset. -->
  <defs>
    <linearGradient id="chg" x1="0" y1="0" x2="1" y2="1">
      <stop offset="0" stop-color="#296ef9"/>
      <stop offset="1" stop-color="#024ad8"/>
    </linearGradient>
  </defs>
  <!-- Cloud glyph -->
  <path fill="url(#chg)" d="M16 34c-6 0-11-4.6-11-11 0-5.7 4.3-10.4 9.9-11 1.9-4.4 6.3-7.4 11.3-7.4 6 0 11 4.2 12.2 9.9 4.6.5 8.1 4.3 8.1 9 0 5.1-4.1 9.5-9.4 9.5H16z"/>
  <!-- AI spark -->
  <path fill="#ffffff" d="M27 13l1.7 4.6 4.6 1.7-4.6 1.7L27 25.6 25.3 21l-4.6-1.7 4.6-1.7L27 13z"/>
  <!-- Wordmark -->
  <text x="56" y="24" font-family="Inter, Arial, sans-serif" font-size="16" font-weight="700" fill="#1a1a1a">CloudHosting</text>
  <text x="56" y="40" font-family="Inter, Arial, sans-serif" font-size="12" font-weight="600" fill="#024ad8">AI Panel</text>
</svg>
